<svg width="34" height="34" viewBox="0 0 34 34" fill="none" xmlns="http://www.w3.org/2000/svg">
<path d="M25 0.5H29C31.4853 0.5 33.5 2.51472 33.5 5V33C33.5 33.2761 33.2761 33.5 33 33.5H25C24.7239 33.5 24.5 33.2761 24.5 33V1C24.5 0.723858 24.7239 0.5 25 0.5Z" fill="#FEB73D" stroke="#1B3954"/>
<path d="M5 0.5H9C9.27614 0.5 9.5 0.723858 9.5 1V33C9.5 33.2761 9.27614 33.5 9 33.5H1C0.723858 33.5 0.5 33.2761 0.5 33V5C0.5 2.51472 2.51472 0.5 5 0.5Z" fill="#FEB73D" stroke="#1B3954"/>
<path d="M16.9497 16.1569L6.34315 5.55026" stroke="#FEB73D" stroke-width="9" stroke-linecap="round"/>
<path d="M17.3431 16.1569L27.9497 5.55026" stroke="#FEB73D" stroke-width="9" stroke-linecap="round"/>
</svg>
