<svg width="140" height="36" viewBox="0 0 140 36" fill="none" xmlns="http://www.w3.org/2000/svg">
<g clip-path="url(#clip0_834_2)">
<path d="M135.286 0.0345494C135.195 0.0651635 134.915 0.0896548 134.668 0.0896548C134.421 0.0957776 134.05 0.132515 133.844 0.175374C133.359 0.273339 131.901 0.86113 130.756 1.41218C130.262 1.6571 129.406 2.03671 128.862 2.26938C128.319 2.49592 127.718 2.76533 127.528 2.85717C127.339 2.95514 127.141 3.03473 127.092 3.03473C127.034 3.03473 126.894 3.07759 126.779 3.12657C126.656 3.17556 126.351 3.28577 126.096 3.37149C125.84 3.45721 125.478 3.61028 125.297 3.70824C125.107 3.81233 124.885 3.89193 124.811 3.89193C124.613 3.89193 123.88 4.22256 123.024 4.70014C121.616 5.48386 121.039 5.69204 120.34 5.67367C119.936 5.66754 119.845 5.68591 119.516 5.88797C119.154 6.10227 119.137 6.10227 118.602 6.06553C118.001 6.02267 117.68 6.09002 117.252 6.3533C117.12 6.43902 116.881 6.53699 116.733 6.57372C116.585 6.61046 116.362 6.69618 116.239 6.76353C116.115 6.82476 115.695 6.93497 115.316 7.00844C114.633 7.1309 113.867 7.31458 113.052 7.55337C112.121 7.8289 111.273 7.95748 110.483 7.94523C109.898 7.93299 109.626 7.95748 109.289 8.04932C109.033 8.1228 108.663 8.17178 108.383 8.16566C108.004 8.16566 107.839 8.19627 107.518 8.33709C107.304 8.43506 106.942 8.53302 106.711 8.55139C106.209 8.60038 105.427 8.80243 105.114 8.96775C104.99 9.0351 104.792 9.10857 104.677 9.12694C104.554 9.15143 104.315 9.26164 104.142 9.36573C103.829 9.56778 103.047 9.89229 102.882 9.89229C102.841 9.89229 102.808 9.85555 102.824 9.81269C102.841 9.7331 102.709 9.72698 102.33 9.79433C102.157 9.82494 102.133 9.81882 102.223 9.76983C102.33 9.71473 102.33 9.70861 102.223 9.70861C101.984 9.70861 100.914 10.1311 100.56 10.3699C100.362 10.4985 99.934 10.7372 99.6128 10.8964C99.2834 11.0556 98.9376 11.2577 98.847 11.3434C98.6329 11.5516 98.6329 11.4597 98.8552 11.2332C98.9458 11.1352 99.0117 11.025 98.9952 10.9944C98.9541 10.9026 98.567 11.074 98.5341 11.2026C98.4929 11.3618 97.9247 11.7781 97.8753 11.6802C97.8506 11.6189 97.8177 11.6189 97.7271 11.674C97.5871 11.7598 97.5706 11.6618 97.7189 11.5455C97.8835 11.4046 97.5295 11.6006 97.2412 11.8087C97.1095 11.9067 96.7801 12.0659 96.5001 12.17C96.2284 12.2679 95.866 12.4516 95.7014 12.5741L95.3884 12.7945L95.4625 12.5986C95.5449 12.3843 95.4708 12.3414 95.2979 12.5067C95.232 12.5618 94.9932 12.6965 94.7708 12.8068C94.4332 12.9659 94.3344 13.0517 94.2685 13.2415C94.2109 13.4252 94.1615 13.468 94.0215 13.4558C93.8815 13.4435 93.8403 13.4925 93.7497 13.7619C93.585 14.2395 93.5109 14.3313 93.2309 14.4109C92.9921 14.4783 92.9592 14.466 92.5392 14.1477C92.3004 13.964 92.0369 13.8109 91.9628 13.8109C91.8805 13.8109 91.8475 13.7803 91.8805 13.7191C91.9381 13.5966 91.7075 13.5231 91.5758 13.6211C91.444 13.7191 91.6417 14.6742 91.8558 14.9865C92.0452 15.2559 92.0287 15.2987 91.6664 15.4273C91.3534 15.5437 91.3534 15.5437 91.3534 15.4334C91.3534 15.3049 91.2382 15.3171 90.9664 15.4885C90.8429 15.5681 90.6206 15.6539 90.4723 15.6722C90.1429 15.7273 89.8136 15.9661 89.7477 16.2049C89.6736 16.4376 89.2618 16.5907 89.0066 16.4682C88.916 16.4315 88.7513 16.3764 88.6525 16.3519C88.4384 16.3029 88.1913 16.1437 88.1172 16.009C88.0925 15.96 88.0678 15.9906 88.0678 16.0702C88.0596 16.211 88.0513 16.211 87.9031 16.1131C87.8125 16.0518 87.7219 15.9294 87.689 15.8437C87.6231 15.6539 87.4173 15.4641 87.2773 15.4641C87.2196 15.4641 87.1537 15.5804 87.1373 15.7396C87.1126 15.8927 87.0467 16.058 86.9808 16.1131C86.8902 16.1988 86.8738 16.1988 86.8079 16.1131C86.7667 16.058 86.6267 15.9723 86.4867 15.9233L86.2397 15.8253L86.4126 16.0702C86.6267 16.3886 86.6267 16.3947 86.3385 16.5233C86.0585 16.6458 86.0503 16.6396 85.9268 16.26C85.7456 15.7457 85.5892 15.5498 85.2433 15.409C84.9139 15.2804 84.4363 15.2314 84.4363 15.3355C84.4363 15.3661 84.4939 15.4885 84.5598 15.6049C84.708 15.8682 84.6422 16.1131 84.4857 15.8804C84.4363 15.8008 84.2963 15.7273 84.1893 15.7212C83.8928 15.6845 82.8964 15.1151 82.8388 14.9436C82.8058 14.8579 82.6247 14.6497 82.4353 14.4722C81.8753 13.964 81.5542 13.5844 81.5542 13.4497C81.5542 13.3823 81.48 13.2966 81.3895 13.2598C81.2989 13.2231 81.2248 13.1313 81.2248 13.0517C81.2248 12.9598 81.1671 12.8925 81.0683 12.8741C80.9777 12.8619 80.8954 12.7823 80.8789 12.7027C80.8624 12.6047 80.7966 12.5557 80.6895 12.5557C80.5989 12.5557 80.3931 12.4945 80.2366 12.4149C79.7919 12.2067 79.7343 12.2312 79.7672 12.6108C79.8002 12.9659 79.6849 13.0211 79.512 12.7394C79.4461 12.6353 79.3637 12.5925 79.232 12.6047C79.0673 12.6169 79.0426 12.5925 79.0673 12.4333C79.0838 12.2741 79.0755 12.2618 78.9767 12.3475C78.8861 12.4394 78.8532 12.4394 78.7132 12.3659C78.6308 12.3169 78.4662 12.2863 78.3509 12.2863C78.2356 12.2924 77.9885 12.2496 77.7991 12.1945C77.5521 12.1149 77.445 12.0414 77.3627 11.8761C77.3051 11.7598 77.2062 11.6434 77.1404 11.625C77.0745 11.6067 77.0415 11.5699 77.0663 11.5455C77.091 11.5148 77.0415 11.5087 76.9592 11.5271C76.8522 11.5455 76.7286 11.4903 76.5804 11.3495C76.4569 11.2393 76.2593 11.1046 76.1357 11.0495C76.0204 11.0005 75.8311 10.8352 75.7322 10.6883C75.6252 10.5352 75.4934 10.3882 75.444 10.3515C75.3781 10.3086 75.3699 10.3148 75.4193 10.3821C75.5264 10.5291 75.3534 10.3821 75.0076 10.027C74.8429 9.84943 74.6535 9.71473 74.6041 9.72698C74.5547 9.74534 74.3982 9.67799 74.2747 9.58003C73.8794 9.28613 73.9371 9.42696 74.3982 9.87392C74.637 10.1005 74.9252 10.4556 75.0488 10.6576C75.2876 11.0434 75.4276 11.423 75.337 11.423C75.1723 11.423 74.9417 11.2577 74.6453 10.9454C74.2582 10.5352 73.7147 10.2107 73.0395 9.97801C72.5619 9.81882 71.5902 9.70248 71.5902 9.81269C71.5902 9.84331 71.8455 9.95964 72.1584 10.0637C72.4795 10.1739 72.8913 10.3821 73.0971 10.5291C73.723 11.0005 73.9124 11.5087 73.2948 11.0679C72.776 10.6944 71.7713 10.4189 70.6926 10.3454C70.3962 10.327 70.0421 10.2842 69.9021 10.2474C67.7528 9.71473 65.7518 9.17592 65.2907 9.0106C63.9731 8.53915 63.3061 8.30036 63.1085 8.24525C62.9932 8.20852 62.8449 8.15341 62.7791 8.1228C62.7132 8.08606 62.4744 8.01259 62.2438 7.95748C61.9227 7.87176 61.6756 7.73094 61.1239 7.30846C60.7369 7.01457 60.3581 6.76965 60.284 6.76965C60.2098 6.76965 59.9875 6.69006 59.7981 6.59209C58.9746 6.18798 56.1996 5.06139 55.7796 4.96342C55.6643 4.93893 55.409 4.81035 55.2032 4.68177C54.7914 4.43073 52.9469 3.72049 52.2387 3.55517C51.9916 3.49394 51.6787 3.39598 51.5387 3.32863C51.407 3.2674 51.1764 3.21842 51.0446 3.21842C50.7729 3.21842 48.6154 2.4347 47.7096 2.0061C46.4826 1.43055 45.6509 1.17339 44.1275 0.891744C43.6828 0.812148 43.2052 0.677446 42.9335 0.554989C42.3817 0.303954 42.1347 0.236602 41.723 0.193743C41.55 0.175374 41.2783 0.132515 41.1218 0.0957776C40.9654 0.0651635 40.5454 0.0345494 40.1996 0.0345494C39.6067 0.0345494 39.5408 0.046795 39.2855 0.218234C39.129 0.316199 38.9232 0.401919 38.8326 0.401919C38.7502 0.401919 38.4456 0.457024 38.1573 0.524375C37.8774 0.591726 37.6139 0.628463 37.5727 0.610095C37.4903 0.573358 36.7904 0.750919 36.6175 0.848885C36.4445 0.940727 36.4939 1.16727 36.7575 1.55301C36.8892 1.74894 37.0045 2.03059 37.021 2.17754C37.0457 2.42245 37.021 2.45919 36.8233 2.53266C36.5598 2.6245 36.5434 2.67961 36.7245 2.88166L36.8563 3.02861L36.4363 2.99187C36.041 2.96126 36.0163 2.96738 35.934 3.12045C35.8105 3.35924 35.8352 3.81233 35.9752 4.01438C36.041 4.11235 36.2469 4.32052 36.4363 4.47972C36.8233 4.81035 37.021 5.03689 37.4574 5.63693C37.8362 6.16349 38.4291 6.72679 38.9973 7.10028C39.2361 7.25336 39.3761 7.38193 39.3184 7.38193C39.2526 7.38193 39.2361 7.42479 39.269 7.51664C39.3184 7.62072 39.302 7.63909 39.1867 7.60848C38.9808 7.54725 38.4044 7.63297 38.4044 7.72481C38.4044 7.76767 38.5197 7.86564 38.6597 7.94523L38.9067 8.09218H37.8938C36.7739 8.08606 36.7327 8.0983 35.9834 8.62487C35.8022 8.74732 35.6128 8.85141 35.5552 8.85141C35.5058 8.85141 35.3987 8.91876 35.3246 9.00448C35.1929 9.15143 35.2011 9.18204 35.3493 9.54329C35.5305 9.97801 35.8763 10.3882 36.4692 10.8903C36.9469 11.2822 37.4327 11.4659 38.4456 11.6434C38.8079 11.7046 39.2361 11.8149 39.3926 11.8883C40.4631 12.372 41.4512 12.7394 41.9371 12.8251C42.4641 12.9231 43.8393 13.3701 43.8393 13.4558C43.8393 13.5048 43.3699 13.5599 42.5794 13.5966C41.2207 13.6578 40.7348 13.915 41.7724 14.0252C42.2747 14.0803 42.7935 14.1844 42.8923 14.2579C42.9417 14.2946 42.9005 14.3007 42.7688 14.2762C42.6535 14.2517 42.1182 14.215 41.5747 14.1966C40.5866 14.1599 40.5783 14.1599 40.0349 14.3558C39.3678 14.5946 39.162 14.7477 39.3102 14.8824C39.4008 14.962 39.3761 14.9865 39.1537 15.0416C38.6926 15.164 38.075 16.0212 38.075 16.5356C38.075 17.1907 38.6432 17.8826 39.3761 18.1336C40.3807 18.4765 42.777 18.5867 45.7168 18.4336C46.705 18.3785 46.9355 18.4459 46.2109 18.5745C45.9803 18.6112 45.6344 18.703 45.4533 18.7765C44.7204 19.0643 43.1558 20.0807 42.6864 20.5827C42.4147 20.8705 42.0194 21.5808 41.83 22.1012C41.7641 22.2971 41.6489 22.5053 41.5665 22.5727C41.4595 22.6584 41.443 22.7502 41.4842 22.9768C41.5912 23.6013 41.6406 23.7237 41.7971 23.834C41.9453 23.9319 41.9865 23.9319 42.3076 23.8462C42.5382 23.785 42.7358 23.7727 42.9005 23.8033C43.0323 23.8278 43.2958 23.834 43.4934 23.8156C43.7899 23.785 43.8393 23.7911 43.8393 23.8829C43.8393 23.9748 43.8887 23.987 44.2098 23.9564C44.4157 23.9319 44.7616 23.8646 44.9757 23.8033C45.1898 23.736 45.5439 23.6503 45.7744 23.6135C45.9968 23.5707 46.5485 23.4115 46.9932 23.2584C47.4296 23.1053 47.8166 22.989 47.8413 23.0074C47.866 23.0319 47.7919 23.1788 47.6766 23.3441C47.5696 23.5094 47.4461 23.7544 47.4131 23.8891C47.372 24.0544 47.2649 24.183 47.0508 24.3238C46.6803 24.5626 46.5897 24.7891 46.5073 25.6586C46.4826 25.9953 46.4167 26.3015 46.3756 26.3443C46.2603 26.4545 46.8779 26.9933 47.0179 26.9076C47.092 26.8648 47.2237 26.8831 47.4708 26.9811C47.7508 27.0852 47.9155 27.1035 48.2695 27.079C48.8789 27.0301 48.9448 27.0607 48.9448 27.3791C48.9448 27.6913 49.126 27.9424 49.4142 28.022C49.5212 28.0526 49.6777 28.1567 49.7518 28.2608C49.9412 28.5057 50.6576 28.6894 51.5964 28.7322C52.5022 28.7751 53.2021 28.6771 53.8444 28.4199C54.1162 28.3097 54.6514 28.1567 55.0385 28.0832C55.4173 28.0097 55.8455 27.8934 55.9937 27.8322C56.1337 27.7648 56.3066 27.7097 56.3642 27.7097C56.4301 27.7097 56.5948 27.6668 56.7266 27.6117C56.8666 27.5566 57.1795 27.4587 57.4265 27.3913C57.9371 27.2566 59.1723 26.9015 59.7322 26.73C59.9381 26.6627 60.251 26.5831 60.4322 26.5402C60.6133 26.5035 60.8522 26.43 60.9592 26.381C61.1486 26.2892 61.7909 26.2157 61.7909 26.277C61.7909 26.3994 61.5356 26.5953 61.0086 26.8831C60.6792 27.0668 60.3745 27.2444 60.3498 27.2811C60.3251 27.3178 60.0534 27.4893 59.7487 27.673C59.444 27.8505 59.1064 28.0771 58.9911 28.175C58.8758 28.273 58.5382 28.5302 58.2418 28.7567C57.9371 28.9771 57.6653 29.2159 57.6406 29.2833C57.6077 29.3567 57.2865 29.6384 56.916 29.92C56.076 30.5629 55.8208 30.9364 55.9031 31.4018C55.9937 31.8671 56.3313 32.51 56.6278 32.7549C56.9983 33.061 57.4265 33.1406 58.7852 33.1529C60.1522 33.1713 61.1239 33.061 62.0379 32.7855C62.812 32.5529 64.0802 31.9896 65.0271 31.4752C65.7518 31.0711 65.9577 30.9915 65.7271 31.1813C65.5542 31.3283 65.0848 32.0324 65.0848 32.1487C65.0848 32.1977 64.9366 32.3079 64.7554 32.3937C64.3766 32.5712 63.9155 33.1162 63.9813 33.3121C64.006 33.3794 64.0307 33.6243 64.0472 33.8631C64.0637 34.2428 64.039 34.3101 63.8743 34.4509C63.7672 34.5366 63.6602 34.7142 63.6272 34.8367C63.5861 35.0203 63.619 35.0938 63.7837 35.2285C63.8908 35.3204 64.0719 35.4979 64.1872 35.6204C64.2943 35.749 64.4425 35.8531 64.5084 35.8531C64.5825 35.8531 64.7142 35.8959 64.8048 35.9449C64.9613 36.0184 65.0024 36.0184 65.1342 35.9449C65.2248 35.8898 65.4883 35.8592 65.7683 35.8531H66.2459L66.4023 35.5898L66.567 35.3326L66.5423 35.5469L66.5259 35.7612L66.8882 35.7551C67.1764 35.749 67.2917 35.7122 67.4399 35.5898C67.5387 35.4979 67.6375 35.4551 67.654 35.4857C67.7034 35.602 68.3457 35.2775 69.1198 34.7448L69.9021 34.1938L70.0832 34.3591C70.1821 34.4509 70.2809 34.6101 70.3056 34.7203C70.4373 35.2346 70.9149 35.3326 71.2361 34.904L71.4255 34.6591V34.8489C71.4255 35.1367 71.5737 35.1979 72.0431 35.1061C72.5536 35.002 73.3359 34.4387 73.5171 34.0407C73.6406 33.7774 73.8465 33.5325 74.3653 33.0733C74.5135 32.9386 74.637 32.7978 74.637 32.7488C74.637 32.7059 74.8182 32.5222 75.0323 32.3447C75.2546 32.1671 75.6334 31.7753 75.8722 31.4752L76.3169 30.9303L76.3828 31.1262C76.4239 31.2364 76.5063 31.3222 76.5639 31.3222C76.7204 31.3222 76.7945 31.4875 76.7369 31.714C76.671 31.9896 77.1568 32.6937 77.4368 32.7182C77.5521 32.7304 77.6756 32.7672 77.7168 32.7978C78.1121 33.0794 79.0508 32.3141 79.2402 31.5487C79.2814 31.3834 79.3884 31.1997 79.479 31.1385C79.6684 31.0099 79.9649 30.4588 80.0719 30.0364C80.1707 29.6751 80.6154 28.7016 80.7389 28.5914C80.7883 28.5424 80.8871 28.5057 80.953 28.5057C81.0189 28.5057 81.2659 28.3832 81.4883 28.2301C81.7189 28.0771 81.933 27.9546 81.9659 27.9546C82.0071 27.9546 82.0647 28.0097 82.0894 28.0832C82.1224 28.1505 82.1965 28.1934 82.2541 28.175C82.3118 28.1628 82.4435 28.2118 82.5506 28.2975C82.7894 28.4873 82.9211 28.4812 83.0199 28.273L83.094 28.1077L83.234 28.322C83.547 28.7812 83.9834 29.2404 84.0904 29.2098C84.1399 29.1975 84.1893 29.2098 84.1893 29.2404C84.1893 29.2771 84.2304 29.3016 84.2798 29.3016C84.3787 29.3016 84.3457 28.9588 84.2222 28.5975L84.1728 28.4444L84.5186 28.5791C84.708 28.6587 84.8974 28.7628 84.9386 28.8179C85.021 28.9343 85.4821 29.0935 85.5645 29.0322C85.5974 29.0139 85.548 28.8914 85.4656 28.7628C85.2927 28.4995 85.1857 27.5689 85.3256 27.5015C85.3751 27.4832 85.4656 27.5934 85.548 27.7709C85.7374 28.2056 85.9185 28.1812 85.9103 27.7219C85.9103 27.5321 85.8774 27.2321 85.8362 27.0668C85.7786 26.7913 85.7868 26.7484 85.9597 26.6137L86.1491 26.4668L86.2726 26.6872C86.3467 26.8035 86.4291 27.0607 86.4538 27.2505C86.5279 27.6668 86.6679 27.624 86.8161 27.1403C86.8902 26.8954 86.9644 26.7913 87.1126 26.73C87.2279 26.6872 87.3184 26.6137 87.3184 26.5647C87.3184 26.4484 87.7878 26.081 87.8619 26.1361C87.8949 26.1606 87.8455 26.3076 87.7466 26.4545C87.5243 26.8035 87.5161 26.9015 87.7466 27.0423C87.9607 27.1831 88.0843 27.1893 88.3478 27.0607C88.4713 26.9995 88.5536 26.9872 88.5536 27.0301C88.5536 27.0668 88.6278 27.0974 88.7183 27.0974C88.8995 27.0974 89.0807 26.877 89.1712 26.5464C89.2371 26.3198 89.3524 26.179 89.4677 26.179C89.5995 26.179 89.5418 26.4545 89.3442 26.828C89.0971 27.2811 88.9983 27.6485 89.1218 27.6485C89.1712 27.6485 89.2124 27.7036 89.2124 27.7648C89.2124 27.8322 89.2454 27.8995 89.2783 27.9179C89.3524 27.9485 90.0359 27.4403 90.0359 27.3546C90.0359 27.3301 90.11 27.3056 90.2006 27.3056C90.497 27.3056 90.4723 27.5076 90.1182 27.9914C89.863 28.3404 89.7971 28.4751 89.8712 28.5302C89.9371 28.5791 90.0688 28.5118 90.3735 28.2608C90.7852 27.924 90.7852 27.924 90.6041 28.175C90.4312 28.4077 90.4312 28.6832 90.6041 28.6036C90.6453 28.5853 90.67 28.6159 90.6617 28.6649C90.6453 28.8179 90.9582 28.8241 91.1723 28.671C91.3452 28.5546 91.3534 28.5546 91.304 28.6526C91.2629 28.7261 91.2711 28.7567 91.3287 28.7322C91.4111 28.6955 91.4358 28.7812 91.4358 29.0384C91.4358 29.1118 91.5017 29.1975 91.5758 29.2282C91.724 29.2894 92.1193 29.2282 92.3087 29.1118C92.3745 29.0751 92.4898 29.0567 92.5804 29.0751C92.6628 29.0873 92.7945 29.0751 92.8686 29.0445C92.9757 29.0016 93.0004 29.0139 93.0004 29.1179C93.0004 29.4608 93.4286 29.6078 93.758 29.3812C93.9062 29.2833 93.9062 29.2833 93.8568 29.3812C93.7909 29.5159 93.9309 29.5159 94.0791 29.3874C94.1779 29.2955 94.1944 29.2955 94.2356 29.4241C94.2603 29.5098 94.3509 29.571 94.4579 29.5833C94.6061 29.6017 94.7132 29.5282 94.9767 29.2404C95.3308 28.8485 95.4296 28.6894 95.5861 28.2608C95.7014 27.9424 95.619 27.5015 95.4296 27.3423C95.3143 27.2444 95.3143 27.2321 95.4296 27.1954C95.5037 27.177 95.5449 27.1342 95.512 27.1035C95.4873 27.0668 95.5449 27.0117 95.6355 26.975C95.7261 26.9382 95.8002 26.9199 95.8084 26.926C95.8084 26.9382 95.8331 27.2627 95.8496 27.6485C95.8908 28.224 95.866 28.4322 95.7343 28.7934C95.6437 29.0384 95.6108 29.222 95.6437 29.2037C95.6849 29.1853 95.7178 29.222 95.7178 29.2771C95.7178 29.3384 95.7425 29.3629 95.7755 29.3445C95.8331 29.2955 96.0472 29.5833 96.0472 29.7241C96.0472 29.9507 96.2366 30.2997 96.4672 30.4895C96.5989 30.6058 96.8377 30.9058 96.9942 31.163C97.1507 31.414 97.3236 31.6406 97.373 31.6589C97.5048 31.7263 98.2376 31.5671 98.427 31.4385C98.7647 31.2058 98.6329 30.3425 98.1306 29.4363C97.9741 29.1547 97.8588 28.9037 97.8753 28.873C97.8918 28.8424 98.2047 29.0322 98.5753 29.2894L99.2505 29.7608L99.2999 30.3854C99.3329 30.8385 99.3081 31.1813 99.2093 31.6283C99.094 32.1426 99.0858 32.3018 99.1682 32.5773C99.2505 32.859 99.2505 32.9325 99.1435 33.0917C98.9788 33.3243 98.9788 33.4284 99.1435 33.5325C99.2258 33.5815 99.2587 33.6733 99.234 33.7958C99.2011 33.9733 99.3329 34.2611 99.5881 34.555C99.7116 34.6958 100.189 34.7509 100.28 34.6346C100.313 34.604 100.486 34.5611 100.683 34.5366C101.26 34.4693 101.704 34.2611 102.248 33.808C102.866 33.2937 102.89 33.2509 103.08 32.6692C103.286 32.0324 103.64 31.2609 103.722 31.2609C103.755 31.2609 103.788 31.2732 103.788 31.2854C103.788 31.2977 103.92 31.6161 104.076 31.9896C104.282 32.4794 104.463 32.7733 104.751 33.0794C105.105 33.459 105.97 34.1387 106.102 34.1387C106.135 34.1387 106.217 34.2121 106.299 34.2979C106.382 34.3897 106.481 34.4387 106.555 34.4203C106.637 34.3958 106.703 34.4448 106.761 34.5489C106.859 34.7448 107.312 35.051 107.493 35.0571C107.568 35.0571 107.708 35.0999 107.806 35.1551C108.095 35.302 108.613 35.2163 108.959 34.9591C109.116 34.8428 109.289 34.7509 109.354 34.7509C109.412 34.7509 109.503 34.6958 109.552 34.6346C109.593 34.5673 109.709 34.4938 109.799 34.4754C109.931 34.4448 109.964 34.3836 109.964 34.1754C109.964 33.9427 109.989 33.9182 110.153 33.9182C110.301 33.9244 110.334 33.8876 110.359 33.6978C110.376 33.5631 110.466 33.41 110.59 33.3121C110.837 33.11 111.026 32.5529 111.1 31.763L111.158 31.1875L111.85 31.6161C112.615 32.0875 113.645 32.5161 114.526 32.7304C115.012 32.8467 115.209 32.8651 115.885 32.8345C116.321 32.8161 116.733 32.7855 116.799 32.7672C117.046 32.6937 117.235 32.2712 117.194 31.8916C117.128 31.2242 116.56 30.5201 115.218 29.4425C115.003 29.271 114.822 29.1057 114.822 29.0751C114.822 29.0506 115.242 29.3506 115.753 29.7425C116.757 30.514 117.12 30.7283 118.47 31.316C119.187 31.6344 119.401 31.6957 119.598 31.6712C119.73 31.6467 119.862 31.6589 119.887 31.6895C119.961 31.7753 120.644 31.763 120.9 31.6712C121.023 31.6283 121.27 31.5793 121.451 31.5732C121.764 31.5548 122.069 31.4263 122.069 31.3038C122.069 31.2732 122.135 31.1752 122.225 31.0895C122.448 30.8507 122.67 29.7976 122.604 29.271C122.546 28.7934 122.448 28.5608 122.192 28.2914C122.094 28.1873 121.929 27.9424 121.83 27.7403C121.418 26.9443 121.072 26.1606 121.114 26.13C121.138 26.1116 121.451 26.2035 121.797 26.3259C123.724 27.0178 125.214 27.5015 125.651 27.5811C125.832 27.6117 126.318 27.6607 126.73 27.6852C127.388 27.7219 127.512 27.7097 127.817 27.5934C128.006 27.526 128.22 27.4648 128.294 27.4648C128.525 27.4648 129.735 26.7913 129.711 26.6749C129.694 26.6198 129.752 26.5341 129.842 26.479C129.991 26.3872 129.999 26.3627 129.892 26.2708C129.826 26.2096 129.76 26.0872 129.76 26.0014C129.752 25.9157 129.711 25.7565 129.661 25.6586C129.612 25.5545 129.546 25.4014 129.521 25.3034C129.455 25.0708 128.83 24.7463 128.121 24.5809C127.701 24.483 127.471 24.385 127.281 24.2319C127.133 24.1095 127.01 23.987 127.01 23.9564C127.01 23.9258 127.207 23.9258 127.487 23.9564C128.311 24.0421 129.389 24.0054 130.024 23.8707C130.476 23.7727 130.765 23.7482 131.242 23.7727C131.786 23.7972 131.926 23.7788 132.329 23.6441C132.782 23.485 132.79 23.485 132.741 23.2707C132.708 23.1482 132.741 22.9094 132.815 22.6829C132.947 22.3155 132.939 22.2849 132.782 21.8991C132.692 21.6787 132.568 21.342 132.502 21.1522L132.395 20.8032L133.383 20.7787C134.437 20.7481 134.544 20.7236 135.335 20.3378C135.533 20.2399 135.837 20.0684 136.01 19.9582C136.175 19.8419 136.348 19.75 136.389 19.75C136.43 19.75 136.537 19.6031 136.636 19.4255C136.735 19.2541 136.867 19.0275 136.932 18.9357C137.114 18.6847 137.015 18.2806 136.71 18.0418C136.488 17.8642 136.43 17.852 135.903 17.852C135.409 17.852 135.269 17.8275 134.923 17.6683C134.618 17.5274 134.355 17.4662 133.836 17.4172C133.161 17.356 133.029 17.3376 132.115 17.1172C131.868 17.056 131.44 16.9948 131.168 16.9764C130.649 16.9458 129.315 16.6396 129.315 16.5539C129.315 16.5294 129.669 16.5049 130.098 16.5049C131.415 16.5049 132.922 16.3825 133.96 16.1866C135.5 15.8988 136.216 15.6722 137.295 15.1151C138.102 14.7048 138.653 14.2272 139.09 13.5782C139.255 13.3272 139.436 13.1129 139.502 13.0945C139.65 13.0517 139.633 12.8925 139.444 12.5802C139.246 12.2557 139.065 12.0843 138.761 11.9434C138.538 11.8393 138.365 11.8026 137.427 11.6618C137.204 11.625 135.845 11.5944 134.404 11.5883C132.972 11.5822 131.802 11.5699 131.81 11.5638C131.819 11.5638 132.214 11.4414 132.692 11.3067C133.161 11.1658 133.606 11.0128 133.68 10.9638C133.869 10.8352 134.791 10.627 135.154 10.627C135.574 10.627 136.587 10.4678 136.875 10.3576C136.998 10.3086 137.534 9.99026 138.077 9.6535C138.612 9.31062 139.082 9.0351 139.123 9.0351C139.288 9.0351 139.88 8.56364 140.078 8.28199C140.317 7.92074 140.292 7.79829 139.897 7.48602C139.559 7.23499 139.568 7.23499 138.341 7.32071C137.55 7.38193 137.509 7.37581 137.023 7.2105C136.529 7.04518 136.504 7.04518 134.89 7.05743C133.466 7.06355 133.235 7.08192 133.037 7.17988C132.469 7.46153 132.222 7.50439 131.094 7.50439C130.493 7.50439 129.974 7.48602 129.949 7.46153C129.916 7.44316 129.941 7.38193 129.999 7.33295C130.073 7.25948 130.073 7.23499 129.999 7.21662C129.884 7.186 129.851 7.01457 129.958 7.01457C129.991 7.01457 130.238 6.87374 130.493 6.7023C130.863 6.45739 131.061 6.37779 131.473 6.2982C131.761 6.24921 132.412 6.05941 132.922 5.87572C133.77 5.56958 133.927 5.48998 134.791 4.86546C136.01 3.98377 136.117 3.8307 136.34 2.58777C136.545 1.39994 136.537 1.05706 136.274 0.640709C135.944 0.0896548 135.656 -0.0817842 135.286 0.0345494ZM129.439 8.17178C128.821 8.58201 128.64 8.6861 128.722 8.56976C128.838 8.41057 129.291 8.11667 129.422 8.11667C129.48 8.11667 129.48 8.13504 129.439 8.17178ZM102.273 10.2229C102.026 10.376 101.647 10.4678 101.647 10.376C101.647 10.3086 102.223 10.0821 102.388 10.0821C102.462 10.0821 102.421 10.1372 102.273 10.2229ZM101.523 10.5046C101.499 10.5352 101.424 10.5658 101.375 10.5658C101.317 10.5658 101.326 10.5413 101.4 10.5046C101.556 10.4311 101.589 10.4311 101.523 10.5046ZM100.906 10.9087C100.84 10.9577 100.725 11.0311 100.642 11.0618C100.502 11.1169 100.494 11.1107 100.568 11.0066C100.65 10.8903 100.774 10.8291 100.939 10.8168C100.98 10.8107 100.963 10.8536 100.906 10.9087ZM75.3617 11.7965L75.3287 12.0047L75.2299 11.8271C75.1146 11.625 75.164 11.423 75.304 11.5271C75.3534 11.5638 75.3781 11.6863 75.3617 11.7965ZM85.3833 16.0641C85.4409 16.2906 85.3751 16.407 85.2927 16.2233C85.268 16.1621 85.1774 15.9661 85.0868 15.8008L84.9304 15.4947L85.128 15.6722C85.2433 15.7702 85.3504 15.9478 85.3833 16.0641ZM84.3951 16.1192C84.601 16.2968 84.6751 16.5968 84.5104 16.5539C84.4116 16.5294 84.074 15.9539 84.1563 15.9539C84.181 15.9539 84.2881 16.0274 84.3951 16.1192ZM87.8949 16.4437C87.8949 16.4743 87.8784 16.5049 87.8619 16.5049C87.8372 16.5049 87.7961 16.4743 87.7713 16.4437C87.7466 16.407 87.7631 16.3825 87.8043 16.3825C87.8537 16.3825 87.8949 16.407 87.8949 16.4437ZM90.6123 25.5728C90.6123 25.6034 90.5794 25.6279 90.53 25.6279C90.4888 25.6279 90.4476 25.5851 90.4476 25.53C90.4476 25.481 90.4888 25.4565 90.53 25.4749C90.5794 25.4932 90.6123 25.5361 90.6123 25.5728ZM129.184 25.6586C129.315 25.732 129.324 25.7504 129.217 25.7504C129.151 25.7504 129.044 25.7075 128.986 25.6586C128.854 25.5422 128.978 25.5422 129.184 25.6586ZM92.0122 26.2953C92.0122 26.3627 91.9793 26.4362 91.9299 26.4545C91.8805 26.479 91.8475 26.4239 91.8475 26.3382C91.8475 26.2525 91.8887 26.179 91.9299 26.179C91.9793 26.179 92.0122 26.2341 92.0122 26.2953ZM106.234 27.9056C106.209 27.9546 106.184 27.9362 106.184 27.8689C106.176 27.8015 106.201 27.7648 106.225 27.7893C106.25 27.8077 106.258 27.8628 106.234 27.9056ZM95.8496 29.0935C95.8166 29.1486 95.7755 29.1853 95.759 29.1669C95.7343 29.1486 95.7343 29.0873 95.7672 29.0322C95.8002 28.9771 95.8413 28.9404 95.8578 28.9588C95.8825 28.9771 95.8825 29.0384 95.8496 29.0935ZM120.43 29.8221C120.628 29.8772 120.834 29.9507 120.875 29.9935C120.924 30.0364 121.048 30.1037 121.163 30.1405C121.311 30.1894 121.328 30.2139 121.229 30.2139C121.081 30.2201 119.845 29.8098 119.845 29.7608C119.845 29.7057 120.068 29.7302 120.43 29.8221ZM78.6638 31.0466C78.6638 31.0773 78.6144 31.0405 78.5485 30.9548C78.4826 30.8691 78.4332 30.7711 78.4332 30.7405C78.4332 30.7038 78.4826 30.7466 78.5485 30.8323C78.6144 30.9181 78.6638 31.0099 78.6638 31.0466Z" fill="white"/>
<path d="M25 1.5H29C31.4853 1.5 33.5 3.51472 33.5 6V34C33.5 34.2761 33.2761 34.5 33 34.5H25C24.7239 34.5 24.5 34.2761 24.5 34V2C24.5 1.72386 24.7239 1.5 25 1.5Z" fill="#FEB73D" stroke="#1B3954"/>
<path d="M5 1.5H9C9.27614 1.5 9.5 1.72386 9.5 2V34C9.5 34.2761 9.27614 34.5 9 34.5H1C0.723858 34.5 0.5 34.2761 0.5 34V6C0.5 3.51472 2.51472 1.5 5 1.5Z" fill="#FEB73D" stroke="#1B3954"/>
<path d="M16.9497 17.1569L6.34314 6.55026" stroke="#FEB73D" stroke-width="9" stroke-linecap="round"/>
<path d="M17.3432 17.1569L27.9498 6.55026" stroke="#FEB73D" stroke-width="9" stroke-linecap="round"/>
<path d="M42.4404 32.3758C41.667 32.3758 40.9756 32.2557 40.3662 32.0154C39.7568 31.7693 39.2412 31.4324 38.8193 31.0047C38.4033 30.577 38.084 30.0848 37.8613 29.5281C37.6445 28.9715 37.5361 28.3826 37.5361 27.7615V27.4276C37.5361 26.7303 37.6328 26.0858 37.8262 25.494C38.0195 24.8963 38.3066 24.3748 38.6875 23.9295C39.0684 23.4842 39.5459 23.1385 40.1201 22.8924C40.6943 22.6404 41.3623 22.5145 42.124 22.5145C42.7979 22.5145 43.4014 22.6229 43.9346 22.8397C44.4678 23.0565 44.9189 23.367 45.2881 23.7713C45.6631 24.1756 45.9473 24.6649 46.1406 25.2391C46.3398 25.8133 46.4395 26.4578 46.4395 27.1727V28.3768H38.6699V26.5223H43.5479V26.2938C43.5537 25.9774 43.498 25.7078 43.3809 25.4852C43.2695 25.2625 43.1055 25.0926 42.8887 24.9754C42.6719 24.8582 42.4082 24.7996 42.0977 24.7996C41.7754 24.7996 41.5088 24.8699 41.2979 25.0106C41.0928 25.1512 40.9316 25.3445 40.8145 25.5906C40.7031 25.8309 40.624 26.1092 40.5771 26.4256C40.5303 26.742 40.5068 27.076 40.5068 27.4276V27.7615C40.5068 28.1131 40.5537 28.4324 40.6475 28.7195C40.7471 29.0067 40.8877 29.2527 41.0693 29.4578C41.2568 29.657 41.4795 29.8123 41.7373 29.9236C42.001 30.035 42.2998 30.0906 42.6338 30.0906C43.0381 30.0906 43.4365 30.0145 43.8291 29.8621C44.2217 29.7098 44.5586 29.4578 44.8398 29.1063L46.1846 30.7059C45.9912 30.9813 45.7158 31.2479 45.3584 31.5057C45.0068 31.7635 44.585 31.9744 44.0928 32.1385C43.6006 32.2967 43.0498 32.3758 42.4404 32.3758ZM50.1572 22.6902L51.4932 25.3094L52.873 22.6902H55.9492L53.4531 27.3221L56.0811 32.2H52.9785L51.4932 29.3875L50.0166 32.2H46.9141L49.542 27.3221L47.0547 22.6902H50.1572ZM59.9131 24.5184V35.8563H56.9512V22.6902H59.7109L59.9131 24.5184ZM65.749 27.3309V27.5154C65.749 28.2068 65.6699 28.8484 65.5117 29.4402C65.3535 30.032 65.1191 30.5477 64.8086 30.9871C64.498 31.4266 64.1113 31.7693 63.6484 32.0154C63.1914 32.2557 62.6611 32.3758 62.0576 32.3758C61.4893 32.3758 61 32.2498 60.5898 31.9979C60.1797 31.7459 59.8369 31.3973 59.5615 30.952C59.2861 30.5067 59.0635 29.9969 58.8936 29.4227C58.7236 28.8484 58.5889 28.242 58.4893 27.6033V27.366C58.5889 26.6805 58.7236 26.0447 58.8936 25.4588C59.0635 24.867 59.2861 24.3514 59.5615 23.9119C59.8369 23.4725 60.1768 23.1297 60.5811 22.8836C60.9912 22.6375 61.4805 22.5145 62.0488 22.5145C62.6523 22.5145 63.1826 22.6287 63.6396 22.8572C64.1025 23.0858 64.4893 23.4139 64.7998 23.8416C65.1162 24.2635 65.3535 24.7703 65.5117 25.3621C65.6699 25.9539 65.749 26.6102 65.749 27.3309ZM62.7871 27.5154V27.3309C62.7871 26.9617 62.7607 26.6248 62.708 26.3201C62.6553 26.0096 62.5703 25.7401 62.4531 25.5115C62.3418 25.283 62.1924 25.1072 62.0049 24.9842C61.8174 24.8611 61.5859 24.7996 61.3105 24.7996C60.9941 24.7996 60.7275 24.8494 60.5107 24.949C60.2998 25.0428 60.1299 25.1893 60.001 25.3885C59.8779 25.5818 59.79 25.825 59.7373 26.118C59.6904 26.4051 59.6699 26.742 59.6758 27.1287V27.8494C59.6641 28.2947 59.708 28.6873 59.8076 29.0272C59.9072 29.3611 60.0801 29.6219 60.3262 29.8094C60.5723 29.9969 60.9062 30.0906 61.3281 30.0906C61.6094 30.0906 61.8438 30.0262 62.0312 29.8973C62.2188 29.7625 62.3682 29.5779 62.4795 29.3436C62.5908 29.1033 62.6699 28.8279 62.7168 28.5174C62.7637 28.2068 62.7871 27.8729 62.7871 27.5154ZM70.1963 18.7V32.2H67.2256V18.7H70.1963ZM71.6553 27.5418V27.3572C71.6553 26.66 71.7549 26.0184 71.9541 25.4324C72.1533 24.8406 72.4463 24.3279 72.833 23.8943C73.2197 23.4608 73.6973 23.1238 74.2656 22.8836C74.834 22.6375 75.4902 22.5145 76.2344 22.5145C76.9844 22.5145 77.6436 22.6375 78.2119 22.8836C78.7861 23.1238 79.2666 23.4608 79.6533 23.8943C80.04 24.3279 80.333 24.8406 80.5322 25.4324C80.7314 26.0184 80.8311 26.66 80.8311 27.3572V27.5418C80.8311 28.2332 80.7314 28.8748 80.5322 29.4666C80.333 30.0526 80.04 30.5652 79.6533 31.0047C79.2666 31.4383 78.7891 31.7752 78.2207 32.0154C77.6523 32.2557 76.9961 32.3758 76.252 32.3758C75.5078 32.3758 74.8486 32.2557 74.2744 32.0154C73.7002 31.7752 73.2197 31.4383 72.833 31.0047C72.4463 30.5652 72.1533 30.0526 71.9541 29.4666C71.7549 28.8748 71.6553 28.2332 71.6553 27.5418ZM74.6172 27.3572V27.5418C74.6172 27.8992 74.6436 28.2332 74.6963 28.5438C74.749 28.8543 74.8369 29.1268 74.96 29.3611C75.083 29.5897 75.25 29.7684 75.4609 29.8973C75.6719 30.0262 75.9355 30.0906 76.252 30.0906C76.5625 30.0906 76.8203 30.0262 77.0254 29.8973C77.2363 29.7684 77.4033 29.5897 77.5264 29.3611C77.6494 29.1268 77.7373 28.8543 77.79 28.5438C77.8428 28.2332 77.8691 27.8992 77.8691 27.5418V27.3572C77.8691 27.0115 77.8428 26.6863 77.79 26.3817C77.7373 26.0711 77.6494 25.7986 77.5264 25.5643C77.4033 25.324 77.2363 25.1365 77.0254 25.0018C76.8145 24.867 76.5508 24.7996 76.2344 24.7996C75.9238 24.7996 75.6631 24.867 75.4521 25.0018C75.2471 25.1365 75.083 25.324 74.96 25.5643C74.8369 25.7986 74.749 26.0711 74.6963 26.3817C74.6436 26.6863 74.6172 27.0115 74.6172 27.3572ZM85.1377 25.0457V32.2H82.1758V22.6902H84.9443L85.1377 25.0457ZM87.9502 22.6199L87.8975 25.3709C87.7803 25.3592 87.6221 25.3445 87.4229 25.327C87.2236 25.3094 87.0566 25.3006 86.9219 25.3006C86.5762 25.3006 86.2773 25.3416 86.0254 25.4236C85.7793 25.4998 85.5742 25.617 85.4102 25.7752C85.252 25.9276 85.1348 26.1209 85.0586 26.3553C84.9883 26.5897 84.9561 26.8621 84.9619 27.1727L84.4258 26.8211C84.4258 26.1824 84.4873 25.6024 84.6104 25.0809C84.7393 24.5535 84.9209 24.0994 85.1553 23.7186C85.3896 23.3318 85.6738 23.0359 86.0078 22.8309C86.3418 22.6199 86.7168 22.5145 87.1328 22.5145C87.2793 22.5145 87.4229 22.5233 87.5635 22.5408C87.71 22.5584 87.8389 22.5848 87.9502 22.6199ZM93.3994 32.3758C92.626 32.3758 91.9346 32.2557 91.3252 32.0154C90.7158 31.7693 90.2002 31.4324 89.7783 31.0047C89.3623 30.577 89.043 30.0848 88.8203 29.5281C88.6035 28.9715 88.4951 28.3826 88.4951 27.7615V27.4276C88.4951 26.7303 88.5918 26.0858 88.7852 25.494C88.9785 24.8963 89.2656 24.3748 89.6465 23.9295C90.0273 23.4842 90.5049 23.1385 91.0791 22.8924C91.6533 22.6404 92.3213 22.5145 93.083 22.5145C93.7568 22.5145 94.3604 22.6229 94.8936 22.8397C95.4268 23.0565 95.8779 23.367 96.2471 23.7713C96.6221 24.1756 96.9062 24.6649 97.0996 25.2391C97.2988 25.8133 97.3984 26.4578 97.3984 27.1727V28.3768H89.6289V26.5223H94.5068V26.2938C94.5127 25.9774 94.457 25.7078 94.3398 25.4852C94.2285 25.2625 94.0645 25.0926 93.8477 24.9754C93.6309 24.8582 93.3672 24.7996 93.0566 24.7996C92.7344 24.7996 92.4678 24.8699 92.2568 25.0106C92.0518 25.1512 91.8906 25.3445 91.7734 25.5906C91.6621 25.8309 91.583 26.1092 91.5361 26.4256C91.4893 26.742 91.4658 27.076 91.4658 27.4276V27.7615C91.4658 28.1131 91.5127 28.4324 91.6064 28.7195C91.7061 29.0067 91.8467 29.2527 92.0283 29.4578C92.2158 29.657 92.4385 29.8123 92.6963 29.9236C92.96 30.035 93.2588 30.0906 93.5928 30.0906C93.9971 30.0906 94.3955 30.0145 94.7881 29.8621C95.1807 29.7098 95.5176 29.4578 95.7988 29.1063L97.1436 30.7059C96.9502 30.9813 96.6748 31.2479 96.3174 31.5057C95.9658 31.7635 95.5439 31.9744 95.0518 32.1385C94.5596 32.2967 94.0088 32.3758 93.3994 32.3758ZM101.591 25.0457V32.2H98.6289V22.6902H101.397L101.591 25.0457ZM104.403 22.6199L104.351 25.3709C104.233 25.3592 104.075 25.3445 103.876 25.327C103.677 25.3094 103.51 25.3006 103.375 25.3006C103.029 25.3006 102.73 25.3416 102.479 25.4236C102.232 25.4998 102.027 25.617 101.863 25.7752C101.705 25.9276 101.588 26.1209 101.512 26.3553C101.441 26.5897 101.409 26.8621 101.415 27.1727L100.879 26.8211C100.879 26.1824 100.94 25.6024 101.063 25.0809C101.192 24.5535 101.374 24.0994 101.608 23.7186C101.843 23.3318 102.127 23.0359 102.461 22.8309C102.795 22.6199 103.17 22.5145 103.586 22.5145C103.732 22.5145 103.876 22.5233 104.017 22.5408C104.163 22.5584 104.292 22.5848 104.403 22.6199Z" fill="#1B3954"/>
<path d="M39.0615 2.35938H42.1338L45.625 13.2412L49.1162 2.35938H52.1885L46.8711 18H44.3789L39.0615 2.35938ZM37.1924 2.35938H40.3721L40.9629 14.3477V18H37.1924V2.35938ZM50.8779 2.35938H54.0684V18H50.2871V14.3477L50.8779 2.35938ZM63.1025 15.1748V6.37695H66.7334V18H63.3389L63.1025 15.1748ZM63.4463 12.8115L64.3916 12.79C64.3916 13.5706 64.2985 14.2939 64.1123 14.96C63.9261 15.6188 63.6504 16.1917 63.2852 16.6787C62.9271 17.1657 62.4831 17.5452 61.9531 17.8174C61.4303 18.0824 60.8252 18.2148 60.1377 18.2148C59.5648 18.2148 59.0384 18.1361 58.5586 17.9785C58.0859 17.8138 57.6777 17.5596 57.334 17.2158C56.9902 16.8649 56.7217 16.4173 56.5283 15.873C56.3421 15.3216 56.249 14.6628 56.249 13.8965V6.37695H59.8691V13.918C59.8691 14.1758 59.9014 14.3978 59.9658 14.584C60.0303 14.7702 60.1234 14.9277 60.2451 15.0566C60.3669 15.1784 60.5173 15.2715 60.6963 15.3359C60.8825 15.3932 61.0938 15.4219 61.3301 15.4219C61.8743 15.4219 62.3005 15.3073 62.6084 15.0781C62.9163 14.849 63.1312 14.5374 63.2529 14.1436C63.3818 13.7497 63.4463 13.3057 63.4463 12.8115ZM72.2871 8.8584V18H68.667V6.37695H72.0615L72.2871 8.8584ZM71.8574 11.791L71.0088 11.8125C71.0088 10.9245 71.1162 10.1331 71.3311 9.43848C71.5459 8.73665 71.8503 8.14225 72.2441 7.65527C72.638 7.16829 73.1071 6.79948 73.6514 6.54883C74.2028 6.29102 74.8151 6.16211 75.4883 6.16211C76.0254 6.16211 76.516 6.24089 76.96 6.39844C77.4111 6.55599 77.7979 6.81022 78.1201 7.16113C78.4495 7.51204 78.7002 7.97754 78.8721 8.55762C79.0511 9.13053 79.1406 9.83952 79.1406 10.6846V18H75.499V10.6738C75.499 10.2083 75.4346 9.85384 75.3057 9.61035C75.1768 9.3597 74.9906 9.18783 74.7471 9.09473C74.5036 9.00163 74.2064 8.95508 73.8555 8.95508C73.4831 8.95508 73.168 9.02669 72.9102 9.16992C72.6523 9.31315 72.4447 9.51367 72.2871 9.77148C72.1367 10.0221 72.0257 10.3193 71.9541 10.6631C71.8896 11.0068 71.8574 11.3828 71.8574 11.791ZM87.1865 15.0781V10.2871C87.1865 9.95768 87.14 9.6748 87.0469 9.43848C86.9538 9.20215 86.807 9.01953 86.6064 8.89062C86.4059 8.75456 86.1374 8.68652 85.8008 8.68652C85.5286 8.68652 85.2959 8.73307 85.1025 8.82617C84.9092 8.91927 84.7624 9.05892 84.6621 9.24512C84.5618 9.43132 84.5117 9.66764 84.5117 9.9541H80.8916C80.8916 9.41699 81.0098 8.91927 81.2461 8.46094C81.4896 7.99544 81.8333 7.59082 82.2773 7.24707C82.7285 6.90332 83.2656 6.63835 83.8887 6.45215C84.5189 6.25879 85.2207 6.16211 85.9941 6.16211C86.918 6.16211 87.7415 6.31608 88.4648 6.62402C89.1953 6.93197 89.7718 7.39388 90.1943 8.00977C90.6169 8.61849 90.8281 9.38477 90.8281 10.3086V15.0674C90.8281 15.8265 90.8711 16.403 90.957 16.7969C91.043 17.1836 91.1647 17.5238 91.3223 17.8174V18H87.6914C87.5195 17.6419 87.3906 17.2051 87.3047 16.6895C87.2259 16.1667 87.1865 15.6296 87.1865 15.0781ZM87.627 10.8994L87.6484 12.833H86.0479C85.7113 12.833 85.4248 12.8796 85.1885 12.9727C84.9593 13.0658 84.7731 13.1947 84.6299 13.3594C84.4938 13.5169 84.3936 13.696 84.3291 13.8965C84.2718 14.097 84.2432 14.3083 84.2432 14.5303C84.2432 14.7451 84.2933 14.9385 84.3936 15.1104C84.501 15.2751 84.6442 15.404 84.8232 15.4971C85.0023 15.5902 85.2028 15.6367 85.4248 15.6367C85.8258 15.6367 86.166 15.5615 86.4453 15.4111C86.7318 15.2536 86.9502 15.0638 87.1006 14.8418C87.251 14.6198 87.3262 14.4121 87.3262 14.2188L88.1211 15.7012C87.9779 15.9876 87.8132 16.2777 87.627 16.5713C87.4479 16.8649 87.2223 17.137 86.9502 17.3877C86.6852 17.6312 86.3594 17.8317 85.9727 17.9893C85.5859 18.1396 85.1169 18.2148 84.5654 18.2148C83.8493 18.2148 83.1904 18.068 82.5889 17.7744C81.9945 17.4808 81.5182 17.0726 81.1602 16.5498C80.8021 16.0199 80.623 15.4111 80.623 14.7236C80.623 14.1221 80.7305 13.585 80.9453 13.1123C81.1673 12.6396 81.5003 12.2386 81.9443 11.9092C82.3883 11.5798 82.9541 11.3291 83.6416 11.1572C84.3291 10.9854 85.1383 10.8994 86.0693 10.8994H87.627ZM96.2314 16.6357L99.2393 6.37695H103.128L98.4551 19.7295C98.3548 20.0231 98.2223 20.3382 98.0576 20.6748C97.8929 21.0186 97.6673 21.3444 97.3809 21.6523C97.0944 21.9603 96.7256 22.2109 96.2744 22.4043C95.8304 22.5977 95.279 22.6943 94.6201 22.6943C94.2692 22.6943 94.0114 22.6764 93.8467 22.6406C93.6891 22.612 93.4456 22.5583 93.1162 22.4795V19.8906C93.2093 19.8906 93.2881 19.8906 93.3525 19.8906C93.4242 19.8906 93.5029 19.8906 93.5889 19.8906C93.9756 19.8906 94.2835 19.8512 94.5127 19.7725C94.749 19.6937 94.9281 19.5791 95.0498 19.4287C95.1787 19.2783 95.279 19.0957 95.3506 18.8809L96.2314 16.6357ZM95.4688 6.37695L97.7568 14.5088L98.1543 18.3438H95.7266L91.5908 6.37695H95.4688ZM108.832 15.4219C109.169 15.4219 109.455 15.361 109.691 15.2393C109.935 15.1104 110.118 14.9313 110.239 14.7021C110.368 14.4658 110.429 14.1829 110.422 13.8535H113.827C113.834 14.7272 113.619 15.4935 113.183 16.1523C112.753 16.804 112.166 17.3125 111.421 17.6777C110.683 18.0358 109.849 18.2148 108.918 18.2148C108.008 18.2148 107.214 18.068 106.533 17.7744C105.853 17.4736 105.284 17.0583 104.825 16.5283C104.374 15.9912 104.034 15.3646 103.805 14.6484C103.583 13.9323 103.472 13.1553 103.472 12.3174V12.0703C103.472 11.2324 103.583 10.4554 103.805 9.73926C104.034 9.01595 104.374 8.38932 104.825 7.85938C105.284 7.32227 105.849 6.9069 106.522 6.61328C107.203 6.3125 107.994 6.16211 108.896 6.16211C109.863 6.16211 110.715 6.34473 111.453 6.70996C112.198 7.0752 112.782 7.60514 113.204 8.2998C113.627 8.99447 113.834 9.83594 113.827 10.8242H110.422C110.429 10.4733 110.375 10.1582 110.261 9.87891C110.146 9.59961 109.967 9.3776 109.724 9.21289C109.487 9.04102 109.183 8.95508 108.811 8.95508C108.438 8.95508 108.137 9.03743 107.908 9.20215C107.679 9.36686 107.504 9.59603 107.382 9.88965C107.267 10.1761 107.188 10.5055 107.146 10.8779C107.11 11.2503 107.092 11.6478 107.092 12.0703V12.3174C107.092 12.7471 107.11 13.1517 107.146 13.5312C107.188 13.9036 107.271 14.2331 107.393 14.5195C107.514 14.7988 107.69 15.0208 107.919 15.1855C108.148 15.3431 108.452 15.4219 108.832 15.4219ZM118.919 1.5V18H115.299V1.5H118.919ZM118.489 11.791L117.641 11.8125C117.641 10.9961 117.741 10.2441 117.941 9.55664C118.142 8.86914 118.428 8.27116 118.801 7.7627C119.173 7.25423 119.621 6.86035 120.144 6.58105C120.666 6.30176 121.246 6.16211 121.884 6.16211C122.457 6.16211 122.979 6.24447 123.452 6.40918C123.932 6.57389 124.344 6.83887 124.688 7.2041C125.038 7.56934 125.307 8.04557 125.493 8.63281C125.687 9.22005 125.783 9.9362 125.783 10.7812V18H122.142V10.7598C122.142 10.2871 122.074 9.92188 121.938 9.66406C121.809 9.39909 121.622 9.21647 121.379 9.11621C121.135 9.00879 120.838 8.95508 120.487 8.95508C120.065 8.95508 119.721 9.02669 119.456 9.16992C119.191 9.31315 118.987 9.51367 118.844 9.77148C118.708 10.0221 118.615 10.3193 118.564 10.6631C118.514 11.0068 118.489 11.3828 118.489 11.791ZM133.829 15.0781V10.2871C133.829 9.95768 133.783 9.6748 133.689 9.43848C133.596 9.20215 133.45 9.01953 133.249 8.89062C133.049 8.75456 132.78 8.68652 132.443 8.68652C132.171 8.68652 131.938 8.73307 131.745 8.82617C131.552 8.91927 131.405 9.05892 131.305 9.24512C131.204 9.43132 131.154 9.66764 131.154 9.9541H127.534C127.534 9.41699 127.652 8.91927 127.889 8.46094C128.132 7.99544 128.476 7.59082 128.92 7.24707C129.371 6.90332 129.908 6.63835 130.531 6.45215C131.161 6.25879 131.863 6.16211 132.637 6.16211C133.561 6.16211 134.384 6.31608 135.107 6.62402C135.838 6.93197 136.414 7.39388 136.837 8.00977C137.259 8.61849 137.471 9.38477 137.471 10.3086V15.0674C137.471 15.8265 137.514 16.403 137.6 16.7969C137.686 17.1836 137.807 17.5238 137.965 17.8174V18H134.334C134.162 17.6419 134.033 17.2051 133.947 16.6895C133.868 16.1667 133.829 15.6296 133.829 15.0781ZM134.27 10.8994L134.291 12.833H132.69C132.354 12.833 132.067 12.8796 131.831 12.9727C131.602 13.0658 131.416 13.1947 131.272 13.3594C131.136 13.5169 131.036 13.696 130.972 13.8965C130.914 14.097 130.886 14.3083 130.886 14.5303C130.886 14.7451 130.936 14.9385 131.036 15.1104C131.144 15.2751 131.287 15.404 131.466 15.4971C131.645 15.5902 131.845 15.6367 132.067 15.6367C132.468 15.6367 132.809 15.5615 133.088 15.4111C133.374 15.2536 133.593 15.0638 133.743 14.8418C133.894 14.6198 133.969 14.4121 133.969 14.2188L134.764 15.7012C134.62 15.9876 134.456 16.2777 134.27 16.5713C134.09 16.8649 133.865 17.137 133.593 17.3877C133.328 17.6312 133.002 17.8317 132.615 17.9893C132.229 18.1396 131.759 18.2148 131.208 18.2148C130.492 18.2148 129.833 18.068 129.231 17.7744C128.637 17.4808 128.161 17.0726 127.803 16.5498C127.445 16.0199 127.266 15.4111 127.266 14.7236C127.266 14.1221 127.373 13.585 127.588 13.1123C127.81 12.6396 128.143 12.2386 128.587 11.9092C129.031 11.5798 129.597 11.3291 130.284 11.1572C130.972 10.9854 131.781 10.8994 132.712 10.8994H134.27Z" fill="#1B3954"/>
</g>
<defs>
<clipPath id="clip0_834_2">
<rect width="140" height="36" fill="white"/>
</clipPath>
</defs>
</svg>
